<?xml version="1.0" encoding="UTF-8"?>
<svg width="24px" height="24px" viewBox="0 0 24 24" version="1.1" xmlns="http://www.w3.org/2000/svg" xmlns:xlink="http://www.w3.org/1999/xlink">
    <!-- Generator: Sketch 53.1 (72631) - https://sketchapp.com -->
    <title> Android/assets/icons/ic_close</title>
    <desc>Created with Sketch.</desc>
    <g id="assets/icons/ic_close" stroke="none" stroke-width="1" fill="none" fill-rule="evenodd">
        <polygon id="Bounds" points="0 0 24 0 24 24 0 24"></polygon>
        <path d="M13.4142136,12 L20.4852814,19.0710678 C20.8758057,19.4615921 20.8758057,20.0947571 20.4852814,20.4852814 C20.0947571,20.8758057 19.4615921,20.8758057 19.0710678,20.4852814 L12,13.4142136 L4.92893219,20.4852814 C4.5384079,20.8758057 3.90524292,20.8758057 3.51471863,20.4852814 C3.12419433,20.0947571 3.12419433,19.4615921 3.51471863,19.0710678 L10.5857864,12 L3.51471863,4.92893219 C3.12419433,4.5384079 3.12419433,3.90524292 3.51471863,3.51471863 C3.90524292,3.12419433 4.5384079,3.12419433 4.92893219,3.51471863 L12,10.5857864 L19.0710678,3.51471863 C19.4615921,3.12419433 20.0947571,3.12419433 20.4852814,3.51471863 C20.8758057,3.90524292 20.8758057,4.5384079 20.4852814,4.92893219 L13.4142136,12 Z" id="Path" fill="#FFFFFF"></path>
    </g>
</svg>