<?xml version="1.0" encoding="UTF-8"?>
<svg width="24px" height="24px" viewBox="0 0 24 24" version="1.1" xmlns="http://www.w3.org/2000/svg" xmlns:xlink="http://www.w3.org/1999/xlink">
    <!-- Generator: Sketch 53.1 (72631) - https://sketchapp.com -->
    <title> Android/assets/icons/ic_info_round</title>
    <desc>Created with Sketch.</desc>
    <g id="assets/icons/ic_info_round" stroke="none" stroke-width="1" fill="none" fill-rule="evenodd">
        <polygon id="Bounds" points="0 0 24 0 24 24 0 24"></polygon>
        <circle id="Oval" fill="#FFFFFF" cx="12" cy="12" r="12"></circle>
        <path d="M14.8203615,17.4891689 L14.6306213,18.288814 C14.0614008,18.5204388 13.606706,18.6967296 13.268119,18.8179374 C12.9291669,18.9395216 12.5353253,19 12.086594,19 C11.3974928,19 10.8614982,18.8259677 10.4792186,18.4802872 C10.0969391,18.1332264 9.90573845,17.6934404 9.90573845,17.1599254 C9.90573845,16.9533954 9.91961297,16.7409681 9.94845737,16.5245257 C9.97754518,16.3078323 10.0237936,16.0637855 10.0870809,15.7910053 L10.7984543,13.1952015 C10.8617416,12.9466377 10.9155358,12.7111233 10.9586199,12.4884071 C11.0023124,12.2670712 11.0233676,12.0634271 11.0233676,11.8801097 C11.0233676,11.5486077 10.9567943,11.3167319 10.8242561,11.1863646 C10.6917179,11.0563736 10.4388121,10.9903744 10.0633481,10.9903744 C9.87944989,10.9903744 9.69043997,11.020739 9.49777886,11.0794608 C9.30426581,11.1384335 9.13886691,11.1953987 9,11.2483487 L9.19022698,10.4480762 C9.65624049,10.2524624 10.1016856,10.0849548 10.5277795,9.94592972 C10.9538733,9.80652823 11.3564778,9.73676475 11.7372969,9.73676475 C12.4216516,9.73676475 12.9497353,9.90728376 13.3205745,10.2483218 C13.6914136,10.5896108 13.8767723,11.0320317 13.8767723,11.5772157 C13.8767723,11.6900168 13.8646017,11.8887674 13.8384349,12.1728403 C13.8128765,12.4575405 13.7652894,12.7184007 13.6959168,12.9556719 L12.987586,15.5410613 C12.929532,15.7487206 12.87732,15.9861172 12.8319236,16.2532511 C12.7850666,16.5186284 12.7626727,16.7213942 12.7626727,16.8574079 C12.7626727,17.2007044 12.8369135,17.4350897 12.9857604,17.5596852 C13.1357025,17.6842808 13.3939634,17.7462649 13.7607862,17.7462649 C13.9330007,17.7462649 14.1289478,17.714771 14.3466805,17.6529123 C14.5638045,17.5910537 14.7221445,17.5367235 14.8203615,17.4891689 Z M15,6.63492476 C15,7.08537602 14.8353313,7.47007896 14.5044119,7.78639863 C14.1743443,8.10384757 13.776608,8.26269751 13.3113248,8.26269751 C12.844581,8.26269751 12.4458711,8.10384757 12.1120307,7.78639863 C11.7787988,7.46995349 11.6118177,7.08537602 11.6118177,6.63492476 C11.6118177,6.18535182 11.7787988,5.80002151 12.1120307,5.47968667 C12.4452626,5.15985373 12.8447027,5 13.3113248,5 C13.7764863,5 14.1743443,5.16023015 14.5044119,5.47968667 C14.8355748,5.80002151 15,6.18547729 15,6.63492476 Z" id="Shape" fill="#444444"></path>
    </g>
</svg>