<?xml version="1.0" encoding="UTF-8"?>
<svg width="24px" height="24px" viewBox="0 0 24 24" version="1.1" xmlns="http://www.w3.org/2000/svg" xmlns:xlink="http://www.w3.org/1999/xlink">
    <!-- Generator: Sketch 53.1 (72631) - https://sketchapp.com -->
    <title> Android/assets/icons/ic_search</title>
    <desc>Created with Sketch.</desc>
    <g id="assets/icons/ic_search" stroke="none" stroke-width="1" fill="none" fill-rule="evenodd">
        <polygon id="Bounds" points="0 0 24 0 24 24 0 24"></polygon>
        <path d="M15.9375,14.140625 L15.78125,14.4140625 L20,18.671875 L18.671875,20 L14.453125,15.7421875 L14.1796875,15.9375 C13.1380156,16.5885449 12.0572973,16.9140625 10.9375,16.9140625 C9.2968668,16.9140625 7.89714121,16.3281309 6.73828125,15.15625 C5.57942129,13.9843691 5,12.5781332 5,10.9375 C5,9.2968668 5.57942129,7.89714121 6.73828125,6.73828125 C7.89714121,5.57942129 9.2968668,5 10.9375,5 C12.5781332,5 13.9778588,5.57942129 15.1367188,6.73828125 C16.2955787,7.89714121 16.875,9.2968668 16.875,10.9375 C16.875,12.0833391 16.5625031,13.1510367 15.9375,14.140625 Z M14.2578125,7.6171875 C13.3463496,6.70572461 12.2395898,6.25 10.9375,6.25 C9.63541016,6.25 8.52865039,6.70572461 7.6171875,7.6171875 C6.70572461,8.52865039 6.25,9.63541016 6.25,10.9375 C6.25,12.2395898 6.70572461,13.3463496 7.6171875,14.2578125 C8.52865039,15.1692754 9.63541016,15.625 10.9375,15.625 C12.2395898,15.625 13.3463496,15.1692754 14.2578125,14.2578125 C15.1953172,13.3203078 15.6640625,12.213548 15.6640625,10.9375 C15.6640625,9.66145195 15.1953172,8.55469219 14.2578125,7.6171875 Z" id="ion-ios-search-strong---Ionicons" fill="#444444"></path>
    </g>
</svg>