<?xml version="1.0" encoding="UTF-8"?>
<svg width="43px" height="32px" viewBox="0 0 43 32" version="1.1" xmlns="http://www.w3.org/2000/svg" xmlns:xlink="http://www.w3.org/1999/xlink">
    <!-- Generator: Sketch 53.1 (72631) - https://sketchapp.com -->
    <title>Android/assets/images/im_logo</title>
    <desc>Created with Sketch.</desc>
    <g id="assets/images/im_logo" stroke="none" stroke-width="1" fill="none" fill-rule="evenodd">
        <polygon id="Bounds" points="0 0 43 0 43 32 0 32"></polygon>
        <path d="M41.7143068,31.9900049 L37.7854347,31.9900049 C37.0952064,31.9900049 36.5044686,31.3982199 36.5044686,30.6575446 L36.5044686,27.3980255 C36.5044686,26.6574983 37.0952064,26.0643066 37.7854347,26.0643066 L41.7143068,26.0643066 C42.4046828,26.0643066 42.9958638,26.6574983 42.9958638,27.3980255 L42.9958638,30.6575446 C42.9958638,31.3982199 42.4046828,31.9900049 41.7143068,31.9900049 Z M41.7198464,21.57946 L37.7786395,21.57946 C37.0896669,21.57946 36.4984859,20.9873048 36.4984859,20.2957167 L36.4984859,1.28403951 C36.4984859,0.593117713 37.0896669,0 37.7786395,0 L41.7198464,0 C42.4100746,0 43,0.593117713 43,1.28403951 L43,20.2957167 C43,20.9873048 42.4100746,21.57946 41.7198464,21.57946 Z M22.5981239,32 L1.24854125,32 C0.527734692,32 0,31.4217639 0,30.7005606 L0,27.5215207 C0,26.8479979 0.527734692,26.2693916 1.24854125,26.2693916 L22.5981239,26.2693916 C24.3288278,26.2693916 25.768299,24.6322653 25.768299,22.6111043 C25.768299,20.5378206 24.3288278,18.9006203 22.5981239,18.9006203 L9.86631214,18.9006203 C4.58202231,18.9006203 0.306226457,14.7117773 0.306226457,9.51009576 C0.306226457,4.30841418 4.58202231,0.0716686989 9.86631214,0.0716686989 L26.4700495,0.0716686989 C27.1895266,0.0716686989 27.7667479,0.647757692 27.7667479,1.37096002 L27.7667479,4.55014796 C27.7667479,5.27157338 27.1895266,5.84980947 26.4700495,5.84980947 L9.86631214,5.84980947 C8.08892828,5.84980947 6.69547234,7.48730597 6.69547234,9.51009576 C6.69547234,11.5345144 8.08892828,13.1693455 9.86631214,13.1693455 L22.5981239,13.1693455 C27.8824876,13.1693455 32.1582835,17.4067573 32.1582835,22.6111043 C32.1582835,27.7619218 27.8824876,32 22.5981239,32 Z" id="Combined-Shape" fill="#E30513"></path>
    </g>
</svg>