<?xml version="1.0" encoding="UTF-8"?>
<svg width="120px" height="124px" viewBox="0 0 120 124" version="1.1" xmlns="http://www.w3.org/2000/svg" xmlns:xlink="http://www.w3.org/1999/xlink">
    <!-- Generator: Sketch 53.1 (72631) - https://sketchapp.com -->
    <title>Android/assets/images/im_logo_splash</title>
    <desc>Created with Sketch.</desc>
    <g id="assets/images/im_logo_splash" stroke="none" stroke-width="1" fill="none" fill-rule="evenodd">
        <g id="Group" fill="#FFFFFF">
            <path d="M116.412019,89.1349409 L105.447725,89.1349409 C103.521506,89.1349409 101.872936,87.4860283 101.872936,85.4222572 L101.872936,76.3401379 C101.872936,74.2767794 103.521506,72.6239472 105.447725,72.6239472 L116.412019,72.6239472 C118.33865,72.6239472 119.988457,74.2767794 119.988457,76.3401379 L119.988457,85.4222572 C119.988457,87.4860283 118.33865,89.1349409 116.412019,89.1349409 Z M116.427478,60.1276524 L105.428761,60.1276524 C103.506047,60.1276524 101.85624,58.4777083 101.85624,56.5507106 L101.85624,3.57776706 C101.85624,1.65262595 103.506047,0 105.428761,0 L116.427478,0 C118.353697,0 120,1.65262595 120,3.57776706 L120,56.5507106 C120,58.4777083 118.353697,60.1276524 116.427478,60.1276524 Z M63.0645319,89.1627907 L3.48430117,89.1627907 C1.47274798,89.1627907 0,87.55163 0,85.5421144 L0,76.6842373 C0,74.8075754 1.47274798,73.1953832 3.48430117,73.1953832 L63.0645319,73.1953832 C67.8944032,73.1953832 71.9115321,68.6337972 71.9115321,63.0021613 C71.9115321,57.2252939 67.8944032,52.6635016 63.0645319,52.6635016 L27.5338943,52.6635016 C12.787039,52.6635016 0.854585461,40.9919726 0.854585461,26.4983337 C0.854585461,12.0046947 12.787039,0.199693162 27.5338943,0.199693162 L73.8699055,0.199693162 C75.8777485,0.199693162 77.4885988,1.80487136 77.4885988,3.81995691 L77.4885988,12.6782466 C77.4885988,14.688381 75.8777485,16.2995418 73.8699055,16.2995418 L27.5338943,16.2995418 C22.5737533,16.2995418 18.6850391,20.8621592 18.6850391,26.4983337 C18.6850391,32.1390466 22.5737533,36.6942375 27.5338943,36.6942375 L63.0645319,36.6942375 C77.8115934,36.6942375 89.7440469,48.5010957 89.7440469,63.0021613 C89.7440469,77.3540758 77.8115934,89.1627907 63.0645319,89.1627907 Z" id="Shape"></path>
            <path d="M25.264987,99.5104521 L25.264987,123.791874 L22.7975673,123.791874 L22.7975673,104.366736 L13.2406603,120.704664 L12.0243267,120.704664 L2.46741964,104.4708 L2.46741964,123.791874 L0,123.791874 L0,99.5104521 L2.11989574,99.5104521 L12.6846221,117.513392 L23.1450912,99.5104521 L25.264987,99.5104521 Z M45.5603823,124 C43.1508712,124 40.9672846,123.462345 39.0095569,122.38702 C37.0518292,121.311694 35.5227394,119.83748 34.4222415,117.964332 C33.3217437,116.091185 32.771503,113.986816 32.771503,111.651163 C32.771503,109.31551 33.3217437,107.211141 34.4222415,105.337993 C35.5227394,103.464846 37.0518292,101.990631 39.0095569,100.915306 C40.9672846,99.8399803 43.1508712,99.3023256 45.5603823,99.3023256 C47.9698933,99.3023256 50.1418959,99.834199 52.0764553,100.897962 C54.0110146,101.961725 55.5343124,103.435939 56.6463944,105.320649 C57.7584765,107.20536 58.3145091,109.31551 58.3145091,111.651163 C58.3145091,113.986816 57.7584765,116.096966 56.6463944,117.981676 C55.5343124,119.866386 54.0110146,121.340601 52.0764553,122.404364 C50.1418959,123.468127 47.9698933,124 45.5603823,124 Z M45.5603823,121.710609 C47.4833574,121.710609 49.2209595,121.277016 50.7732407,120.409818 C52.3255218,119.54262 53.5418433,118.340124 54.4222415,116.802293 C55.3026398,115.264462 55.7428323,113.547436 55.7428323,111.651163 C55.7428323,109.75489 55.3026398,108.037864 54.4222415,106.500033 C53.5418433,104.962202 52.3255218,103.759705 50.7732407,102.892507 C49.2209595,102.025309 47.4833574,101.591717 45.5603823,101.591717 C43.6374071,101.591717 41.894013,102.025309 40.3301477,102.892507 C38.7662824,103.759705 37.5383769,104.962202 36.6463944,106.500033 C35.754412,108.037864 35.3084275,109.75489 35.3084275,111.651163 C35.3084275,113.547436 35.754412,115.264462 36.6463944,116.802293 C37.5383769,118.340124 38.7662824,119.54262 40.3301477,120.409818 C41.894013,121.277016 43.6374071,121.710609 45.5603823,121.710609 Z M85.3171156,99.5104521 L74.5438749,123.791874 L72.0069505,123.791874 L61.2337098,99.5104521 L64.013901,99.5104521 L73.3275413,120.600601 L82.7106864,99.5104521 L85.3171156,99.5104521 Z M90.5647263,99.5104521 L93.1364031,99.5104521 L93.1364031,123.791874 L90.5647263,123.791874 L90.5647263,99.5104521 Z M120,121.571858 L120,123.791874 L102.797567,123.791874 L102.797567,99.5104521 L119.478714,99.5104521 L119.478714,101.730468 L105.369244,101.730468 L105.369244,110.367716 L117.949609,110.367716 L117.949609,112.553044 L105.369244,112.553044 L105.369244,121.571858 L120,121.571858 Z" id="MOVIE"></path>
        </g>
    </g>
</svg>