<?xml version="1.0" encoding="UTF-8"?>
<svg width="263px" height="264px" viewBox="0 0 263 264" version="1.1" xmlns="http://www.w3.org/2000/svg" xmlns:xlink="http://www.w3.org/1999/xlink">
    <!-- Generator: Sketch 53.1 (72631) - https://sketchapp.com -->
    <title>Android/assets/images/im_scannframe</title>
    <desc>Created with Sketch.</desc>
    <g id="assets/images/im_scannframe" stroke="none" stroke-width="1" fill="none" fill-rule="evenodd" fill-opacity="0.7">
        <path d="M4,4 L4,18 C4,19.1045695 3.1045695,20 2,20 C0.8954305,20 1.3527075e-16,19.1045695 0,18 L0,2 C-1.3527075e-16,0.8954305 0.8954305,2.02906125e-16 2,0 L18,0 C19.1045695,-2.02906125e-16 20,0.8954305 20,2 C20,3.1045695 19.1045695,4 18,4 L4,4 Z M4,260 L18,260 C19.1045695,260 20,260.895431 20,262 C20,263.104569 19.1045695,264 18,264 L2,264 C0.8954305,264 -1.3527075e-16,263.104569 0,262 L0,246 C1.3527075e-16,244.895431 0.8954305,244 2,244 C3.1045695,244 4,244.895431 4,246 L4,260 Z M259,260 L259,246 C259,244.895431 259.895431,244 261,244 C262.104569,244 263,244.895431 263,246 L263,262 C263,263.104569 262.104569,264 261,264 L245,264 C243.895431,264 243,263.104569 243,262 C243,260.895431 243.895431,260 245,260 L259,260 Z M259,4 L245,4 C243.895431,4 243,3.1045695 243,2 C243,0.8954305 243.895431,-2.02906125e-16 245,0 L261,0 C262.104569,2.02906125e-16 263,0.8954305 263,2 L263,18 C263,19.1045695 262.104569,20 261,20 C259.895431,20 259,19.1045695 259,18 L259,4 Z" id="Combined-Shape" fill="#000000"></path>
    </g>
</svg>